<svg width="245" height="242" viewBox="0 0 245 242" fill="none" xmlns="http://www.w3.org/2000/svg">
<path d="M87.2474 197.311C84.2783 205.625 77.2625 204.639 70.0904 201.458C59.9448 196.957 46.4508 176.409 45.1128 166.713C43.8847 157.815 47.0659 150.846 53.9937 149.94" fill="white"/>
<path d="M87.2474 197.311C84.2783 205.625 77.2625 204.639 70.0904 201.458C59.9448 196.957 46.4508 176.409 45.1128 166.713C43.8847 157.815 47.0659 150.846 53.9937 149.94" stroke="black" stroke-width="4.99999" stroke-linecap="round" stroke-linejoin="round"/>
<path d="M53.6241 77.0588C42.8183 79.4031 48.8131 96.518 57.9125 113.231C61.4457 119.72 51.4505 146.216 57.6097 163.091C61.6164 174.069 76.6682 194.117 87.2723 196.88C105.429 201.611 121.382 198.515 137.329 190.031C142.982 187.024 148.754 182.745 153.087 178.773C167.316 165.728 214.449 149.55 217.456 145.418C225.812 133.938 209.562 126.661 200.624 129.643C196.295 131.088 163.289 137.953 167.687 134.27C178.491 125.222 192.584 115.633 206.41 107.338C227.099 94.9251 201.417 72.8087 182.164 84.6301C173.144 90.1679 164.963 93.7315 145.125 106.562C152.512 95.5869 162.53 79.089 170.912 69.4815C184.735 53.6385 156.38 38.3818 139.886 58.1075C128.654 71.5412 111.064 97.9592 86.939 115.617C87.1469 100.511 86.2187 69.9862 53.6256 77.0564L53.6241 77.0588Z" fill="white" stroke="black" stroke-width="4.99999" stroke-linecap="round" stroke-linejoin="round"/>
<path d="M143.786 104.093C134.033 116.813 131.937 125.573 130.396 129.449C136.294 121.307 137.573 119.085 144.522 110.874C145.7 109.482 147.304 108.054 149.524 106.635L143.786 104.093Z" fill="black"/>
<path d="M166.044 132.387C158.843 138.426 151.609 147.437 148.349 154.612C152.232 151.257 158.853 145.433 164.654 140.218C166.227 138.803 167.978 137.925 170.982 137.719C168.971 136.297 167.582 134.277 166.044 132.387L166.044 132.387Z" fill="black"/>
<path d="M86.8946 182.019C99.2798 178.376 101.898 176.157 107.567 173.493" stroke="black" stroke-width="4.99999" stroke-linecap="round" stroke-linejoin="round"/>
<path d="M78.9514 173.59C91.2368 166.311 96.4579 161.654 104.2 156.061" stroke="black" stroke-width="4.99999" stroke-linecap="round" stroke-linejoin="round"/>
<path d="M69.775 163.249C77.4821 157.154 80.551 153.563 85.0571 149.196" stroke="black" stroke-width="4.99999" stroke-linecap="round" stroke-linejoin="round"/>
</svg>
