<svg width="153" height="135" viewBox="0 0 153 135" fill="none" xmlns="http://www.w3.org/2000/svg">
<path d="M130.17 86.7956C138.312 90.1356 142.23 84.2562 144.648 76.7912C148.065 66.2308 141.757 42.4715 135.447 35.0036C129.61 28.1566 122.384 25.8628 117.008 30.4313" fill="white"/>
<path d="M130.17 86.7956C138.312 90.1356 142.23 84.2562 144.648 76.7912C148.065 66.2308 141.757 42.4715 135.447 35.0036C129.61 28.1566 122.384 25.8628 117.008 30.4313" stroke="black" stroke-width="4.99983" stroke-linecap="round" stroke-linejoin="round"/>
<path d="M62.3035 12.7598C81.2196 8.65494 113.999 21.7839 124.457 41.8882C129.743 52.2886 134.798 76.7926 129.754 86.5393C121.211 103.219 108.199 113.038 91.244 119.263C85.2381 121.462 78.237 122.897 72.346 123.481C48.3041 126.063 29.359 121.382 29.5146 104.664C9.17894 102.831 9.01893 71.9139 23.9245 69.3729C4.14227 56.7573 16.6959 31.7721 38.8576 37.6582C40.9964 33.8163 42.6654 17.028 62.3035 12.7598V12.7598Z" fill="white" stroke="black" stroke-width="4.99983" stroke-linecap="round" stroke-linejoin="round"/>
<path d="M25.0355 71.7892C40.889 74.1435 46.8599 71.2226 51.0479 70.7091C41.0287 69.4876 38.458 69.4449 27.9122 67.3557C26.1185 66.9983 24.2729 66.4468 22.0849 64.903L22.1834 72.5147C21.8261 72.6246 23.8941 71.7943 25.0349 71.7893L25.0355 71.7892Z" fill="black"/>
<path d="M27.947 106.937C37.346 107.313 48.9442 106.71 56.1728 103.592C51.0015 103.461 37.6542 102.235 29.8638 102.194C29.8637 102.178 29.8803 102.207 27.9464 106.937L27.947 106.937Z" fill="black"/>
<path d="M119.014 76.3313C108.011 83.1296 104.596 83.603 98.8781 86.0407" stroke="black" stroke-width="4.99983" stroke-linecap="round" stroke-linejoin="round"/>
<path d="M118.035 64.7909C104.387 69.0925 97.406 69.8789 88.1307 71.9051" stroke="black" stroke-width="4.99983" stroke-linecap="round" stroke-linejoin="round"/>
<path d="M116.453 51.0567C106.748 52.7367 101.994 52.6321 95.8284 53.0607" stroke="black" stroke-width="4.99983" stroke-linecap="round" stroke-linejoin="round"/>
<path d="M37.2338 35.0761C58.3892 36.5329 65.4178 29.0546 75.089 23.2805C65.3964 31.2512 63.1146 40.3389 38.635 40.1551L37.2338 35.0761V35.0761Z" fill="black"/>
</svg>
