<svg width="215" height="176" viewBox="0 0 215 176" fill="none" xmlns="http://www.w3.org/2000/svg">
<path d="M27.5666 84.7134C18.8784 86.1143 16.3993 79.4976 15.7428 71.6782C14.8172 60.6172 26.3631 38.9145 34.2069 33.0774C41.4482 27.7372 49.0065 27.1468 53.2028 32.8184" fill="white"/>
<path d="M27.5666 84.7134C18.8784 86.1143 16.3993 79.4976 15.7428 71.6782C14.8172 60.6172 26.3631 38.9145 34.2069 33.0774C41.4482 27.7372 49.0065 27.1468 53.2028 32.8184" stroke="black" stroke-width="4.99993" stroke-linecap="round" stroke-linejoin="round"/>
<path d="M110.494 28.0509C93.0064 19.7514 58.0997 25.0817 43.3426 42.281C35.8304 51.2071 25.3344 73.9197 28.0293 84.5583C32.556 102.745 42.9939 115.266 58.0891 125.184C63.4377 128.69 69.9291 131.681 75.533 133.589C96.145 140.313 114.22 129.703 121.522 125.006C134.652 130.14 149.834 137.897 163.753 146.042C184.572 158.225 191.638 125.078 172.018 113.865C162.833 108.616 155.773 103.149 134.992 91.91C148.171 93.1219 167.453 93.9842 179.901 96.7208C200.44 101.239 200.201 69.0386 174.975 64.044C157.797 60.6439 144.061 60.7924 127.663 57.6295C126.454 53.4018 128.647 36.6735 110.494 28.0509Z" fill="white" stroke="black" stroke-width="4.99993" stroke-linecap="round" stroke-linejoin="round"/>
<path d="M136.483 89.5365C120.643 87.0914 111.957 89.4605 107.766 89.9501C117.778 91.229 120.349 91.2864 130.882 93.436C132.674 93.8037 134.694 94.523 137.009 95.7899L136.483 89.5365V89.5365Z" fill="black"/>
<path d="M122.355 122.648C113.592 119.228 102.218 117.212 94.3676 117.802C103.935 121.312 111.492 124.074 120.683 127.204C120.693 127.181 121.427 124.9 122.35 122.646L122.355 122.648Z" fill="black"/>
<path d="M40.8098 77.0601C49.9785 86.1828 53.1966 87.4205 58.2105 91.0949" stroke="black" stroke-width="4.99993" stroke-linecap="round" stroke-linejoin="round"/>
<path d="M44.3885 66.0448C56.7008 73.3376 63.3199 75.691 71.8914 79.7737" stroke="black" stroke-width="4.99993" stroke-linecap="round" stroke-linejoin="round"/>
<path d="M49.0519 53.0297C58.1206 56.8729 62.7746 57.8524 68.681 59.672" stroke="black" stroke-width="4.99993" stroke-linecap="round" stroke-linejoin="round"/>
<path d="M129.832 55.4843C108.899 52.0916 103.755 43.2106 95.6503 35.3882C103.276 45.3546 103.431 54.7233 127.312 60.1117L129.832 55.4843V55.4843Z" fill="black"/>
</svg>
